# xmcd
#
# Track frame offsets: 
#        150
#        13695
#        34289
#        47087
#        85605
#        100370
#        119332
#        134024
#        145893
#        156867
#        174116
#        191715
#        207618
#        223644
#        236950
#        257637
#        276274
#        292309
#        308564
#        324861
#
# Disc length: 4575 seconds
#
# Revision: 0
# Processed by: cddbd v1.5.2PL0 Copyright (c) Steve Scherf et al.
# Submitted via: ExactAudioCopy v1.1
#
DISCID=3211dd14
DTITLE=Various Artist - Het Allerbeste Uit Radio 1 Classics 1000 Van 2017 - C
DTITLE=D 1
DYEAR=2017
DGENRE=Easy Listening
TTITLE0=Queen - Killer Queen
TTITLE1=U2 - One
TTITLE2=The Beach Boys - God Only Knows
TTITLE3=Bob Dylan - Hurricane
TTITLE4=The Kinks - Waterloo Sunset
TTITLE5=Nick Cave and The Bad Seeds - Into My Arms
TTITLE6=Norah Jones - Come Away With Me
TTITLE7=Otis Redding - (Sittin' On) The Dock Of The Bay
TTITLE8=Dusty Springfield - Son Of A Preacher Man
TTITLE9=Marvin Gaye - What's Going On
TTITLE10=Rod Stewart - Maggie May
TTITLE11=The Cure - Friday I'm In Love
TTITLE12=Amy Winehouse - Rehab
TTITLE13=Ike and Tina Turner - Nutbush City Limits
TTITLE14=The National - Bloodbuzz Ohio
TTITLE15=Roxy Music - Love Is The Drug
TTITLE16=Buckshot LeFonque - Another Day
TTITLE17=Nina Simone - My Baby Just Cares For Me
TTITLE18=Paul Weller - You Do Something To Me
TTITLE19=Procol Harum - A Whiter Shade Of Pale
EXTD=
EXTT0=
EXTT1=
EXTT2=
EXTT3=
EXTT4=
EXTT5=
EXTT6=
EXTT7=
EXTT8=
EXTT9=
EXTT10=
EXTT11=
EXTT12=
EXTT13=
EXTT14=
EXTT15=
EXTT16=
EXTT17=
EXTT18=
EXTT19=
PLAYORDER=
